<svg width="94" height="62" viewBox="0 0 94 62" fill="none" xmlns="http://www.w3.org/2000/svg">
    <path
        d="M93.7935 30.0342C93.658 29.7242 90.3441 22.3915 82.9435 15.0072C76.0766 8.16333 64.2787 0 47 0C29.7213 0 17.9234 8.16333 11.0565 15.0072C3.6559 22.3915 0.341965 29.7123 0.20654 30.0342C0.0703671 30.3395 0 30.6699 0 31.004C0 31.3381 0.0703671 31.6685 0.20654 31.9737C0.341965 32.2797 3.6559 39.6124 11.0565 46.9968C17.9234 53.8406 29.7213 62 47 62C64.2787 62 76.0766 53.8406 82.9435 46.9968C90.3441 39.6124 93.658 32.2917 93.7935 31.9737C93.9296 31.6685 94 31.3381 94 31.004C94 30.6699 93.9296 30.3395 93.7935 30.0342ZM47 57.2308C34.501 57.2308 23.5873 52.6921 14.5576 43.7458C10.7724 39.9922 7.5693 35.6963 5.05397 31C7.56858 26.3044 10.7718 22.0098 14.5576 18.2582C23.5873 9.30795 34.501 4.76923 47 4.76923C59.499 4.76923 70.4127 9.30795 79.4424 18.2582C83.2282 22.0098 86.4314 26.3044 88.946 31C86.4088 35.8527 73.6868 57.2308 47 57.2308ZM47 12.7179C43.3762 12.7179 39.8338 13.7902 36.8207 15.799C33.8076 17.8079 31.4592 20.6632 30.0724 24.0038C28.6857 27.3444 28.3228 31.0203 29.0298 34.5667C29.7368 38.113 31.4818 41.3706 34.0442 43.9274C36.6066 46.4842 39.8713 48.2253 43.4255 48.9308C46.9797 49.6362 50.6637 49.2741 54.0116 47.8904C57.3596 46.5067 60.2211 44.1634 62.2344 41.157C64.2477 38.1505 65.3223 34.6158 65.3223 31C65.3159 26.1532 63.3835 21.5068 59.9488 18.0796C56.5141 14.6524 51.8574 12.7243 47 12.7179ZM47 44.5128C44.3215 44.5128 41.7032 43.7203 39.4762 42.2355C37.2491 40.7507 35.5133 38.6403 34.4883 36.1711C33.4633 33.702 33.1951 30.985 33.7177 28.3638C34.2402 25.7425 35.53 23.3348 37.424 21.445C39.3179 19.5552 41.731 18.2682 44.358 17.7468C46.985 17.2254 49.7079 17.493 52.1825 18.5158C54.6571 19.5385 56.7721 21.2705 58.2602 23.4927C59.7483 25.7149 60.5425 28.3274 60.5425 31C60.5425 34.5838 59.1157 38.0209 56.576 40.555C54.0363 43.0892 50.5917 44.5128 47 44.5128Z"
        fill="#707070" />
</svg>