<svg width="19" height="18" viewBox="0 0 19 18" fill="none" xmlns="http://www.w3.org/2000/svg">
    <path
        d="M2.36377 2H8.36377C8.91377 2 9.36377 1.55 9.36377 1C9.36377 0.45 8.91377 0 8.36377 0H2.36377C1.26377 0 0.36377 0.9 0.36377 2V16C0.36377 17.1 1.26377 18 2.36377 18H8.36377C8.91377 18 9.36377 17.55 9.36377 17C9.36377 16.45 8.91377 16 8.36377 16H2.36377V2Z"
        fill="#707070" />
    <path
        d="M18.0138 8.65004L15.2238 5.86004C15.1542 5.78859 15.0649 5.73952 14.9673 5.71911C14.8697 5.69869 14.7683 5.70787 14.6759 5.74545C14.5836 5.78304 14.5045 5.84733 14.4489 5.93009C14.3933 6.01286 14.3637 6.11033 14.3638 6.21004V8.00004H7.36377C6.81377 8.00004 6.36377 8.45004 6.36377 9.00004C6.36377 9.55004 6.81377 10 7.36377 10H14.3638V11.79C14.3638 12.24 14.9038 12.46 15.2138 12.14L18.0038 9.35004C18.2038 9.16004 18.2038 8.84004 18.0138 8.65004Z"
        fill="#707070" />
</svg>